<svg xmlns="http://www.w3.org/2000/svg" width="1200" height="500" viewBox="0 0 1200 500"><style>text{font-family:Arial,sans-serif;fill:#152019}.h{font-size:18px;font-weight:700}.s{font-size:13px;fill:#617068}.box{fill:#fffdf8;stroke:#d7d1c6;stroke-width:2}.accent{fill:#ef6c37}.line{stroke:#296450;stroke-width:3;fill:none;marker-end:url(#a)}</style><defs><marker id="a" markerWidth="8" markerHeight="8" refX="7" refY="3" orient="auto"><path d="M0,0 L0,6 L8,3z" fill="#296450"/></marker></defs><rect width="1200" height="500" fill="#f5f1e8"/><g text-anchor="middle"><rect class="box" x="70" y="60" width="220" height="72" rx="16"/><text class="h" x="180" y="92">Webcam</text><text class="s" x="180" y="114">hand landmarks</text><rect class="box" x="70" y="270" width="220" height="72" rx="16"/><text class="h" x="180" y="302">Rice image</text><text class="s" x="180" y="324">uploaded plate</text><rect class="box" x="410" y="60" width="220" height="72" rx="16"/><text class="h" x="520" y="92">Hand geometry</text><text class="s" x="520" y="114">palm + finger metrics</text><rect class="box" x="410" y="270" width="220" height="72" rx="16"/><text class="h" x="520" y="302">Image processing</text><text class="s" x="520" y="324">rice segmentation</text><rect class="accent" x="760" y="165" width="220" height="72" rx="16"/><text class="h" x="870" y="197" fill="white">Vaari calculator</text><text class="s" x="870" y="219" fill="white">quantity ÷ capacity</text><rect class="box" x="760" y="315" width="220" height="72" rx="16"/><text class="h" x="870" y="347">Final verdict</text><text class="s" x="870" y="369">estimated vaaris</text></g><path class="line" d="M290 96H410"/><path class="line" d="M290 306H410"/><path class="line" d="M630 96C710 96 700 190 760 190"/><path class="line" d="M630 306C710 306 700 210 760 210"/><path class="line" d="M870 237V315"/></svg>
